<svg width="24" height="25" viewBox="0 0 24 25" fill="none" xmlns="http://www.w3.org/2000/svg">
<path d="M5.37321 25H0.396429V8.30915H5.37321V25ZM2.88214 6.03237C1.29107 6.03237 0 4.6596 0 3.00223C0 2.20599 0.303653 1.44236 0.84416 0.879333C1.38467 0.316306 2.11775 0 2.88214 0C3.64653 0 4.37962 0.316306 4.92013 0.879333C5.46063 1.44236 5.76429 2.20599 5.76429 3.00223C5.76429 4.6596 4.47321 6.03237 2.88214 6.03237ZM23.9946 25H19.0286V16.875C19.0286 14.9386 18.9911 12.4554 16.4411 12.4554C13.8536 12.4554 13.4571 14.5592 13.4571 16.7355V25H8.48571V8.30915H13.2589V10.5859H13.3286C13.9929 9.27455 15.6161 7.89062 18.0375 7.89062C23.0732 7.89062 24 11.3449 24 15.8315V25H23.9946Z" fill="white"/>
</svg>
