<svg width="27" height="27" viewBox="0 0 27 27" fill="none" xmlns="http://www.w3.org/2000/svg">
<path d="M27 13.5C27 20.9577 20.9577 27 13.5 27C12.1065 27 10.7673 26.7877 9.50444 26.3958C10.0542 25.4976 10.8762 24.0278 11.181 22.8575C11.3444 22.226 12.0194 19.6458 12.0194 19.6458C12.4603 20.4841 13.745 21.1972 15.1113 21.1972C19.1831 21.1972 22.1171 17.452 22.1171 12.7978C22.1171 8.33952 18.4754 5.00262 13.794 5.00262C7.96935 5.00262 4.87198 8.91109 4.87198 13.1734C4.87198 15.1548 5.92802 17.6208 7.61008 18.4046C7.86593 18.5244 8.00202 18.47 8.0619 18.225C8.10544 18.0399 8.33407 17.12 8.4375 16.6954C8.47016 16.5593 8.45383 16.4395 8.34496 16.3089C7.79516 15.6284 7.34879 14.3873 7.34879 13.2278C7.34879 10.2502 9.60242 7.37056 13.4456 7.37056C16.7607 7.37056 19.0851 9.62964 19.0851 12.8631C19.0851 16.5157 17.2397 19.047 14.8391 19.047C13.5163 19.047 12.5202 17.9528 12.8413 16.6083C13.2224 15.0024 13.9573 13.2714 13.9573 12.1119C13.9573 11.0776 13.402 10.2121 12.248 10.2121C10.8925 10.2121 9.80383 11.6111 9.80383 13.4891C9.80383 14.6867 10.2067 15.4923 10.2067 15.4923C10.2067 15.4923 8.87298 21.1427 8.62802 22.1988C8.35585 23.3637 8.46472 25.0077 8.57903 26.0746C3.56008 24.1095 0 19.2212 0 13.5C0 6.04234 6.04234 0 13.5 0C20.9577 0 27 6.04234 27 13.5Z" fill="white"/>
</svg>
