<svg width="42" height="37" viewBox="0 0 42 37" fill="none" xmlns="http://www.w3.org/2000/svg">
<g clip-path="url(#clip0_200_364)">
<path d="M26.8056 35.1914C27.2543 34.1075 27.3763 32.4599 27.1178 31.1715C26.9406 30.2873 26.0448 26.931 21.6032 26.5042C17.1616 26.0775 15.6155 30.202 15.6155 30.202C15.6155 30.202 14.9294 31.7207 15.3749 34.0785C15.713 35.8646 16.63 36.6956 17.0543 36.9935H25.4709C25.692 36.7874 26.4382 36.0771 26.8056 35.1914Z" fill="white"/>
<path d="M41.1871 16.7268L22.5591 0.505702C22.1218 0.144946 21.5381 0 21.0276 0C20.5171 0 19.9335 0.0724732 19.423 0.578175L0.729968 16.7188C0.219478 17.2245 0 17.8026 0 18.4533C0 19.761 1.02098 20.7724 2.3346 20.7724H4.6692V25.8085C4.66269 25.8729 4.66269 25.9454 4.66269 26.0114V34.1043C4.66269 35.7003 5.96818 36.9936 7.57931 36.9936H8.74661C8.83441 36.9936 8.9222 36.9871 9.00836 36.9791C9.11729 36.9855 9.22784 36.9936 9.33677 36.9936H16.443C14.4514 36.5394 12.7655 35.1866 11.9136 33.3119C10.1887 29.6464 11.5185 26.799 12.2534 25.4687C12.9882 24.1384 14.5018 22.2364 15.8951 21.13C17.2884 20.0235 20.1286 17.4838 20.2749 17.3275C20.4212 17.1713 22.1315 15.3386 22.6908 14.1661C23.1623 13.1692 23.4663 12.4573 22.9916 11.7117C22.8485 11.4878 22.7184 11.338 22.9607 11.5087C23.4435 11.8904 23.8792 12.3285 24.2564 12.8117C24.6352 13.3496 25.1994 14.2724 25.3749 16.1277C25.5782 18.2987 24.2597 21.2395 24.2597 21.2395C24.2597 21.2395 23.8987 22.0399 23.9085 22.5311C23.902 22.8194 23.9638 23.1045 24.089 23.3638C24.1166 23.4217 24.0321 22.8564 24.0808 22.5601C24.154 22.1575 24.2662 21.8467 24.7702 21.2298C24.897 21.0865 25.0368 20.956 25.188 20.8385C25.9765 20.2265 26.3715 20.154 26.4349 20.1298C26.4983 20.1057 26.4203 20.1991 26.4203 20.1991C26.4203 20.1991 25.9001 20.8997 26.3553 21.9401C26.5747 22.4409 26.9893 22.7775 27.8835 23.5232C28.7777 24.2705 29.8425 25.3318 30.3904 26.4737C30.9383 27.6155 31.2895 29.6834 30.896 31.5001C30.262 34.4167 27.9697 36.264 25.6204 36.9952H30.3384L32.7088 37.0016C32.8112 37.0016 32.9136 37.0016 33.0144 36.9952C33.0941 37.0016 33.1754 37.0016 33.255 37.0016H34.4223C36.0334 37.0016 37.3389 35.7084 37.3389 34.1123V32.9415C37.3601 32.7466 37.3747 32.5518 37.3747 32.3569L37.3243 20.7821H39.6589C40.8994 20.7821 41.9935 19.7626 41.9935 18.463C42.0667 17.8123 41.774 17.2341 41.192 16.7284L41.1871 16.7268Z" fill="white"/>
</g>
<defs>
<clipPath id="clip0_200_364">
<rect width="42" height="37" fill="white"/>
</clipPath>
</defs>
</svg>
