<svg width="30" height="21" viewBox="0 0 30 21" fill="none" xmlns="http://www.w3.org/2000/svg">
<path d="M29.3739 3.28672C29.0278 1.99062 28.0117 0.973437 26.721 0.628906C24.3812 0 15 0 15 0C15 0 5.61882 0 3.27902 0.628906C1.98828 0.973437 0.972171 1.99062 0.626144 3.28672C0 5.63281 0 10.5219 0 10.5219C0 10.5219 0 15.4109 0.626144 17.757C0.972171 19.0531 1.98828 20.0266 3.27902 20.3711C5.61882 21 15 21 15 21C15 21 24.3812 21 26.721 20.3711C28.0117 20.0266 29.0278 19.0477 29.3739 17.757C30 15.4109 30 10.5219 30 10.5219C30 10.5219 30 5.63281 29.3739 3.28672ZM11.9352 14.9625V6.08125L19.773 10.5219L11.9352 14.9625Z" fill="white"/>
</svg>
